<svg width="120" height="120" viewBox="0 0 120 120" fill="none" xmlns="http://www.w3.org/2000/svg">
  <path d="M60 10C31.4 10 8 33.4 8 62C8 90.6 31.4 114 60 114C88.6 114 112 90.6 112 62C112 33.4 88.6 10 60 10ZM60 20C83.2 20 102 38.8 102 62C102 85.2 83.2 104 60 104C36.8 104 18 85.2 18 62C18 38.8 36.8 20 60 20Z" fill="#b06939" fill-opacity="0.15"/>
  <path d="M60 30C42.3 30 28 44.3 28 62C28 79.7 42.3 94 60 94C77.7 94 92 79.7 92 62C92 44.3 77.7 30 60 30ZM60 40C72.2 40 82 49.8 82 62C82 74.2 72.2 84 60 84C47.8 84 38 74.2 38 62C38 49.8 47.8 40 60 40Z" fill="#9e3432" fill-opacity="0.15"/>
  <path d="M45 50C41.7 50 39 52.7 39 56C39 59.3 41.7 62 45 62C48.3 62 51 59.3 51 56C51 52.7 48.3 50 45 50Z" fill="#decebe" fill-opacity="0.2"/>
  <path d="M75 50C71.7 50 69 52.7 69 56C69 59.3 71.7 62 75 62C78.3 62 81 59.3 81 56C81 52.7 78.3 50 75 50Z" fill="#decebe" fill-opacity="0.2"/>
  <path d="M60 65C55.6 65 52 68.6 52 73C52 77.4 55.6 81 60 81C64.4 81 68 77.4 68 73C68 68.6 64.4 65 60 65Z" fill="#9cd0e5" fill-opacity="0.2"/>
  <path d="M30 25C28.3 25 27 26.3 27 28C27 29.7 28.3 31 30 31C31.7 31 33 29.7 33 28C33 26.3 31.7 25 30 25Z" fill="#e89700" fill-opacity="0.2"/>
  <path d="M90 25C88.3 25 87 26.3 87 28C87 29.7 88.3 31 90 31C91.7 31 93 29.7 93 28C93 26.3 91.7 25 90 25Z" fill="#e89700" fill-opacity="0.2"/>
  <path d="M30 93C28.3 93 27 94.3 27 96C27 97.7 28.3 99 30 99C31.7 99 33 97.7 33 96C33 94.3 31.7 93 30 93Z" fill="#e89700" fill-opacity="0.2"/>
  <path d="M90 93C88.3 93 87 94.3 87 96C87 97.7 88.3 99 90 99C91.7 99 93 97.7 93 96C93 94.3 91.7 93 90 93Z" fill="#e89700" fill-opacity="0.2"/>
  <path d="M60 5C58.3 5 57 6.3 57 8C57 9.7 58.3 11 60 11C61.7 11 63 9.7 63 8C63 6.3 61.7 5 60 5Z" fill="#e89700" fill-opacity="0.2"/>
  <path d="M60 109C58.3 109 57 110.3 57 112C57 113.7 58.3 115 60 115C61.7 115 63 113.7 63 112C63 110.3 61.7 109 60 109Z" fill="#e89700" fill-opacity="0.2"/>
</svg>
