<svg width="1440" height="400" viewBox="0 0 1440 400" xmlns="http://www.w3.org/2000/svg">
  <path fill="#9cd0e5" fill-opacity="0.1" d="M0,128L48,138.7C96,149,192,171,288,176C384,181,480,171,576,144C672,117,768,75,864,80C960,85,1056,139,1152,149.3C1248,160,1344,128,1392,112L1440,96L1440,320L1392,320C1344,320,1248,320,1152,320C1056,320,960,320,864,320C768,320,672,320,576,320C480,320,384,320,288,320C192,320,96,320,48,320L0,320Z"></path>
  <path fill="#9cd0e5" fill-opacity="0.07" d="M0,224L48,213.3C96,203,192,181,288,186.7C384,192,480,224,576,218.7C672,213,768,171,864,165.3C960,160,1056,192,1152,197.3C1248,203,1344,181,1392,170.7L1440,160L1440,320L1392,320C1344,320,1248,320,1152,320C1056,320,960,320,864,320C768,320,672,320,576,320C480,320,384,320,288,320C192,320,96,320,48,320L0,320Z"></path>
  <path fill="#9cd0e5" fill-opacity="0.05" d="M0,64L48,85.3C96,107,192,149,288,160C384,171,480,149,576,144C672,139,768,149,864,170.7C960,192,1056,224,1152,218.7C1248,213,1344,171,1392,149.3L1440,128L1440,320L1392,320C1344,320,1248,320,1152,320C1056,320,960,320,864,320C768,320,672,320,576,320C480,320,384,320,288,320C192,320,96,320,48,320L0,320Z"></path>
</svg>
