<svg width="1440" height="320" viewBox="0 0 1440 320" xmlns="http://www.w3.org/2000/svg">
  <path fill="#9cd0e5" fill-opacity="0.1" d="M0,192L48,197.3C96,203,192,213,288,229.3C384,245,480,267,576,250.7C672,235,768,181,864,181.3C960,181,1056,235,1152,234.7C1248,235,1344,181,1392,154.7L1440,128L1440,320L1392,320C1344,320,1248,320,1152,320C1056,320,960,320,864,320C768,320,672,320,576,320C480,320,384,320,288,320C192,320,96,320,48,320L0,320Z"></path>
  <path fill="#b06939" fill-opacity="0.1" d="M0,96L48,128C96,160,192,224,288,213.3C384,203,480,117,576,117.3C672,117,768,203,864,208C960,213,1056,139,1152,122.7C1248,107,1344,149,1392,170.7L1440,192L1440,320L1392,320C1344,320,1248,320,1152,320C1056,320,960,320,864,320C768,320,672,320,576,320C480,320,384,320,288,320C192,320,96,320,48,320L0,320Z"></path>
  <path fill="#9e3432" fill-opacity="0.1" d="M0,224L48,213.3C96,203,192,181,288,154.7C384,128,480,96,576,122.7C672,149,768,235,864,261.3C960,288,1056,256,1152,229.3C1248,203,1344,181,1392,170.7L1440,160L1440,320L1392,320C1344,320,1248,320,1152,320C1056,320,960,320,864,320C768,320,672,320,576,320C480,320,384,320,288,320C192,320,96,320,48,320L0,320Z"></path>
</svg>
